<svg width="400" height="300" viewBox="0 0 400 300" fill="none" xmlns="http://www.w3.org/2000/svg">
  <rect width="400" height="300" rx="32" fill="#E6F4FF" />
  <path d="M130 90h110a30 30 0 0 1 30 30v80a30 30 0 0 1-30 30H130a30 30 0 0 1-30-30v-80a30 30 0 0 1 30-30z" fill="#1F2937" />
  <circle cx="170" cy="150" r="32" fill="#0F172A" />
  <circle cx="170" cy="150" r="18" fill="#334155" />
  <path d="M240 105h60a20 20 0 0 1 20 20v70a20 20 0 0 1-20 20h-60a20 20 0 0 1-20-20v-70a20 20 0 0 1 20-20z" fill="#0F172A" />
  <circle cx="270" cy="150" r="22" fill="#1E293B" />
  <circle cx="270" cy="150" r="12" fill="#475569" />
</svg>
